<?xml version="1.0" encoding="utf-8"?>
<!-- Generator: Adobe Illustrator 27.5.0, SVG Export Plug-In . SVG Version: 6.00 Build 0)  -->
<svg version="1.1" xmlns="http://www.w3.org/2000/svg" xmlns:xlink="http://www.w3.org/1999/xlink" x="0px" y="0px"
	 viewBox="0 0 3710 3710" style="enable-background:new 0 0 3710 3710;" xml:space="preserve">
<g id="Background">
	<g>
		<g>
			<rect style="fill:#FFFFFF;" width="3710" height="3710"/>
		</g>
	</g>
</g>
<g id="Illustration">
	<g>
		<linearGradient id="SVGID_1_" gradientUnits="userSpaceOnUse" x1="3447.9221" y1="3266.342" x2="1385.0667" y2="1461.345">
			<stop  offset="0" style="stop-color:#DAE3FE"/>
			<stop  offset="1" style="stop-color:#E9EFFD"/>
		</linearGradient>
		<path style="fill:url(#SVGID_1_);" d="M3097.344,2328.927c-266.604,627.745-976.775,979.412-1592.637,884.551
			c-100.213-15.436-374.95-61.417-618.192-278.338c-468.257-417.59-568.397-1244.472-190.669-1827.195
			c274.92-424.12,767.742-664.54,1236.02-652.514c100.867,2.59,487.432,18.555,827.155,298.684
			c49.899,41.145,159.955,138.918,259.143,294.028C3251.073,1412.369,3271.093,1919.817,3097.344,2328.927z"/>
		<g>
			
				<linearGradient id="SVGID_00000139293869327181707720000014956914535457942434_" gradientUnits="userSpaceOnUse" x1="785.1549" y1="2766.1433" x2="818.6571" y2="2246.8606">
				<stop  offset="0" style="stop-color:#4F52FF"/>
				<stop  offset="1" style="stop-color:#4042E2"/>
			</linearGradient>
			<path style="fill:url(#SVGID_00000139293869327181707720000014956914535457942434_);" d="M861.322,2011.987
				c-150.146-24.587-192.141,3.544-192.141,3.544l63.5,120.456c0,0,148.748,8.896,261.699-64.648
				c-18.208-23.036-30.151-47.841-37.552-67.004C928.479,2013.552,896.346,2017.722,861.322,2011.987z"/>
			
				<linearGradient id="SVGID_00000144308468646713490150000014066827387171511176_" gradientUnits="userSpaceOnUse" x1="727.5963" y1="1726.6632" x2="875.702" y2="1726.6632" gradientTransform="matrix(0.9968 0.0794 -0.0794 0.9968 374.5337 151.6604)">
				<stop  offset="0" style="stop-color:#A22B25"/>
				<stop  offset="1" style="stop-color:#C0423C"/>
			</linearGradient>
			<path style="fill:url(#SVGID_00000144308468646713490150000014066827387171511176_);" d="M1115.686,1808.98
				c0.182-4.859-6.277-6.7-8.684-2.474l-22.565,39.619c-4.359,7.655-6.264,16.464-5.454,25.236l4.857,24.492
				c1.093,11.843-2.912,23.569-11.055,32.237c-19.485,20.743-60.45,58.198-115.957,76.244c7.401,19.163,19.344,43.968,37.552,67.004
				c41.444-26.984,78.075-65.054,100.761-118.753c8.979-1.994,15.492-9.779,15.874-18.968L1115.686,1808.98z"/>
		</g>
		<g>
			<g>
				<g style="opacity:0.3;">
					<path style="fill:#91B3FA;" d="M2240.533,1832.815c-9.486,4.907-21.152,1.189-26.053-8.295
						c-9.528-18.426-19.995-36.713-31.118-54.353c-5.627-8.925-3.049-20.688,5.729-26.458c0.104-0.068,0.208-0.137,0.315-0.207
						c9.031-5.694,20.969-2.985,26.664,6.049c11.705,18.568,22.728,37.818,32.755,57.217c4.588,8.868,1.63,19.65-6.535,25.017
						C2241.729,1832.154,2241.145,1832.502,2240.533,1832.815z M2123.342,1688.021c-13.415-15.952-27.639-31.48-42.292-46.167
						c-7.536-7.553-7.527-19.795,0.03-27.338c7.612-7.543,19.802-7.524,27.343,0.036c15.416,15.45,30.391,31.795,44.509,48.577
						c6.872,8.171,5.817,20.369-2.354,27.24c-0.594,0.499-1.209,0.957-1.841,1.372
						C2140.663,1697.048,2129.715,1695.598,2123.342,1688.021z M2004.397,1575.042c-16.584-12.531-33.913-24.492-51.52-35.555
						c-9.038-5.68-11.761-17.617-6.082-26.655c5.685-9.024,17.611-11.758,26.656-6.082c18.54,11.651,36.795,24.25,54.254,37.445
						c8.519,6.437,10.203,18.56,3.771,27.081c-1.373,1.815-3.004,3.321-4.802,4.503
						C2020.036,1580.142,2011.098,1580.107,2004.397,1575.042z M1863.171,1491.504c-18.988-8.519-38.567-16.307-58.192-23.161
						c-10.079-3.523-15.398-14.549-11.878-24.626c3.531-10.075,14.552-15.386,24.626-11.878
						c20.665,7.219,41.276,15.423,61.262,24.38c9.74,4.369,14.098,15.809,9.729,25.55c-1.563,3.485-4.03,6.283-7.003,8.236
						C1876.38,1493.512,1869.427,1494.305,1863.171,1491.504z M1706.855,1441.51c-20.357-4.078-41.179-7.343-61.882-9.693
						c-10.611-1.211-18.23-10.789-17.026-21.396c1.205-10.615,10.787-18.234,21.395-17.019c21.78,2.474,43.689,5.91,65.109,10.201
						c10.467,2.094,17.255,12.281,15.156,22.752c-1.055,5.276-4.166,9.616-8.334,12.356
						C1717.171,1441.407,1712.048,1442.551,1706.855,1441.51z M1543.373,1427.349c-20.785,0.524-41.803,1.95-62.477,4.237
						c-10.611,1.173-20.169-6.479-21.34-17.086c-1.175-10.614,6.47-20.168,17.087-21.346c21.755-2.409,43.883-3.906,65.756-4.458
						c10.674-0.266,19.542,8.165,19.813,18.84c0.175,6.933-3.324,13.102-8.723,16.651
						C1550.577,1426.102,1547.116,1427.256,1543.373,1427.349z M915.311,1775.06c-9.03-5.694-11.736-17.633-6.039-26.666
						c11.67-18.498,24.31-36.739,37.561-54.208c6.454-8.508,18.581-10.172,27.086-3.716c8.504,6.447,10.168,18.574,3.717,27.08
						c-12.583,16.586-24.58,33.908-35.66,51.475c-1.52,2.41-3.482,4.367-5.719,5.838
						C930.117,1778.9,921.931,1779.239,915.311,1775.06z M1380.918,1449.765c-20.137,5.131-40.296,11.198-59.917,18.042
						c-10.085,3.512-21.109-1.812-24.622-11.892c-3.517-10.087,1.832-21.059,11.894-24.619
						c20.663-7.203,41.893-13.595,63.099-18.996c10.345-2.635,20.87,3.614,23.507,13.963c2.091,8.205-1.409,16.525-8.111,20.93
						C1385.024,1448.34,1383.057,1449.217,1380.918,1449.765z M1017.273,1640.923c-7.525-7.57-7.486-19.814,0.087-27.341
						c15.515-15.413,31.901-30.36,48.693-44.435c8.161-6.901,20.376-5.777,27.236,2.402c6.855,8.182,5.78,20.375-2.402,27.236
						c-15.96,13.375-31.533,27.579-46.274,42.231c-0.94,0.935-1.956,1.747-3.022,2.448
						C1034.068,1648.408,1023.86,1647.555,1017.273,1640.923z M1227.576,1507.915c-18.47,9.502-36.772,19.926-54.401,30.991
						c-9.043,5.682-20.973,2.952-26.652-6.094c-5.601-8.925-3.016-20.665,5.749-26.427c0.114-0.075,0.231-0.152,0.348-0.219
						c18.555-11.655,37.823-22.632,57.26-32.635c9.498-4.879,21.153-1.145,26.039,8.349c4.563,8.866,1.6,19.625-6.552,24.984
						C1228.795,1507.24,1228.194,1507.59,1227.576,1507.915z"/>
					<path style="fill:#91B3FA;" d="M874.519,1895.762c3.18-2.091,5.782-5.138,7.307-8.942c3.709-9.252,7.679-18.576,11.784-27.728
						c4.376-9.736,0.028-21.183-9.71-25.555c-9.738-4.379-21.194-0.038-25.555,9.715c-4.326,9.621-8.496,19.43-12.403,29.165
						c-3.975,9.906,0.834,21.168,10.738,25.14C862.791,1900.011,869.408,1899.122,874.519,1895.762z"/>
				</g>
				<g style="opacity:0.3;">
					<path style="fill:#91B3FA;" d="M886.058,2485.042c7.797-5.125,10.942-15.29,6.994-24.073
						c-4.09-9.087-8.058-18.416-11.789-27.721c-3.976-9.911-15.231-14.722-25.14-10.748c-9.951,3.993-14.72,15.235-10.748,25.14
						c3.932,9.795,8.108,19.62,12.412,29.191c4.38,9.736,15.825,14.079,25.563,9.701
						C884.306,2486.103,885.209,2485.6,886.058,2485.042z"/>
					<path style="fill:#91B3FA;" d="M1953.624,2826.414c-9.197,5.422-21.05,2.36-26.474-6.844
						c-5.418-9.198-2.354-21.027,6.843-26.468c17.512-10.32,34.856-21.549,51.754-33.489c8.657-6.161,20.785-4.084,26.947,4.635
						s4.087,20.782-4.63,26.947c-7.321,5.174-14.7,10.206-22.133,15.092C1975.326,2813.259,1964.457,2820.032,1953.624,2826.414z
						 M2062.458,2723.752c-7.281-7.802-6.859-20.036,0.947-27.318c14.983-13.989,29.541-28.755,43.261-43.901
						c7.135-7.926,19.392-8.519,27.308-1.351c7.909,7.164,8.513,19.391,1.346,27.302c-14.444,15.948-29.766,31.497-45.537,46.211
						c-0.818,0.763-1.686,1.443-2.588,2.036C2079.468,2731.811,2068.983,2730.742,2062.458,2723.752z M1859.416,2873.559
						c-19.849,8.285-40.325,15.836-60.863,22.433c-10.165,3.266-21.054-2.327-24.323-12.495
						c-3.264-10.163,2.334-21.037,12.495-24.318c19.506-6.262,38.947-13.429,57.793-21.301c9.855-4.11,21.176,0.539,25.292,10.395
						c3.637,8.716,0.412,18.581-7.204,23.587C1861.615,2872.512,1860.55,2873.085,1859.416,2873.559z M2173.68,2600.788
						c-8.82-6.013-11.099-18.044-5.08-26.862c11.532-16.908,22.475-34.513,32.531-52.32c5.25-9.307,17.037-12.582,26.338-7.328
						c9.297,5.248,12.577,17.036,7.329,26.333c-10.589,18.754-22.115,37.294-34.256,55.098c-1.469,2.15-3.29,3.916-5.341,5.264
						C2188.851,2605.149,2180.347,2605.335,2173.68,2600.788z M1696.354,2921.226c-21.172,3.714-42.799,6.573-64.285,8.497
						c-10.633,0.954-20.023-6.89-20.979-17.521c-0.958-10.64,6.894-20.031,17.527-20.984c20.409-1.831,40.951-4.544,61.056-8.074
						c10.518-1.844,20.54,5.187,22.384,15.704c1.374,7.836-2.179,15.395-8.426,19.502
						C1701.491,2919.755,1699.033,2920.757,1696.354,2921.226z M1526.79,2931.976c-21.524-1.006-43.255-2.933-64.591-5.724
						c-10.588-1.391-18.046-11.092-16.661-21.681c1.39-10.602,11.094-18.056,21.679-16.656c20.273,2.651,40.925,4.482,61.379,5.442
						c10.666,0.498,18.906,9.549,18.409,20.215c-0.304,6.426-3.711,11.973-8.705,15.256
						C1535.005,2930.994,1531.024,2932.175,1526.79,2931.976z M1358.907,2905.518c-20.804-5.672-41.602-12.289-61.807-19.655
						c-10.034-3.661-15.194-14.755-11.54-24.785c3.663-10.044,14.758-15.196,24.785-11.539
						c19.201,7.006,38.958,13.285,58.733,18.676c10.301,2.808,16.375,13.437,13.565,23.735c-1.289,4.733-4.225,8.57-8.024,11.067
						C1370.144,2905.957,1364.476,2907.035,1358.907,2905.518z M1200.795,2843.067c-19.059-10.082-37.908-21.097-56.022-32.74
						c-8.982-5.771-11.585-17.733-5.811-26.717c5.763-8.967,17.734-11.576,26.715-5.805c17.197,11.052,35.094,21.51,53.201,31.088
						c9.437,4.993,13.04,16.687,8.046,26.123c-1.578,2.981-3.821,5.377-6.453,7.107
						C1214.771,2845.872,1207.257,2846.482,1200.795,2843.067z M1060.198,2747.349c-16.329-14-32.273-28.886-47.397-44.248
						c-7.492-7.61-7.398-19.853,0.213-27.342c7.587-7.464,19.845-7.397,27.337,0.212c14.366,14.594,29.511,28.731,45.019,42.033
						c8.104,6.946,9.04,19.154,2.089,27.256c-1.21,1.411-2.578,2.608-4.058,3.581
						C1076.385,2753.454,1066.891,2753.089,1060.198,2747.349z M944.17,2623.226c-9.498-12.689-18.723-25.829-27.413-39.049
						c-3.148-4.789-6.23-9.594-9.259-14.427c-5.666-9.044-3.153-21.08,6.118-26.642c9.043-5.674,20.975-2.935,26.648,6.114
						c2.877,4.588,5.81,9.167,8.801,13.717c8.264,12.57,17.026,25.055,26.057,37.121c6.398,8.545,4.654,20.662-3.893,27.058
						c-0.322,0.239-0.648,0.471-0.979,0.689C961.778,2633.376,950.324,2631.453,944.17,2623.226z"/>
					<path style="fill:#91B3FA;" d="M2273.024,2454.084c3.212-2.112,5.826-5.194,7.347-9.032c3.85-9.733,7.566-19.731,11.045-29.718
						c3.516-10.083-1.809-21.105-11.89-24.618c-10.084-3.511-21.103,1.799-24.618,11.89c-3.307,9.485-6.838,18.982-10.49,28.224
						c-3.929,9.922,0.934,21.156,10.864,25.084C2261.368,2458.321,2267.944,2457.423,2273.024,2454.084z"/>
				</g>
				<g>
					<path style="fill:#91B3FA;" d="M2141.601,2149.833c0.394-3.836-1.685-7.498-5.181-9.122l-99.731-46.339
						c-6.514-50.942-21.198-101.21-44.3-148.745l58.026-93.332c2.035-3.275,1.768-7.478-0.663-10.47l-83.199-102.359
						c-2.43-2.993-6.494-4.112-10.112-2.789l-103.221,37.73c-41.81-32.328-88.018-56.977-136.554-73.762l-24.981-107.094
						c-0.877-3.754-4.037-6.539-7.871-6.934l-131.21-13.55c-3.833-0.396-7.499,1.684-9.122,5.181l-46.337,99.73
						c-50.942,6.512-101.212,21.195-148.746,44.3l-93.332-58.026c-3.274-2.036-7.478-1.771-10.469,0.662l-102.362,83.199
						c-2.991,2.433-4.109,6.494-2.786,10.113l37.731,103.222c-32.329,41.809-56.977,88.018-73.76,136.554l-107.096,24.98
						c-3.753,0.876-6.54,4.036-6.934,7.871l-13.55,131.21c-0.396,3.833,1.686,7.497,5.179,9.121l99.733,46.339
						c6.511,50.942,21.196,101.209,44.3,148.745l-58.026,93.333c-2.037,3.273-1.771,7.478,0.661,10.469l83.2,102.362
						c2.432,2.991,6.493,4.11,10.112,2.787l103.222-37.73c41.81,32.328,88.019,56.976,136.554,73.762l24.981,107.094
						c0.874,3.754,4.035,6.539,7.871,6.935l131.21,13.549c3.834,0.396,7.497-1.685,9.121-5.18l46.338-99.732
						c50.942-6.512,101.21-21.197,148.746-44.299l93.332,58.026c3.272,2.033,7.476,1.768,10.469-0.663l102.36-83.2
						c2.991-2.431,4.112-6.492,2.787-10.114l-37.729-103.219c32.329-41.81,56.974-88.02,73.76-136.555l107.095-24.98
						c3.754-0.875,6.539-4.038,6.935-7.871L2141.601,2149.833z"/>
					<g>
						<path style="fill:#BDD0FB;" d="M1614.622,2276.179c-66.296,30.821-145.305,1.969-176.133-64.331
							c-14.935-32.115-16.466-68.124-4.314-101.389c12.146-33.262,36.519-59.813,68.643-74.74
							c66.297-30.822,145.306-1.969,176.134,64.33c28.042,60.315,6.69,131.15-47.319,166.655
							C1626.279,2270.224,1620.598,2273.398,1614.622,2276.179z M1463.229,2121.072c-9.316,25.509-8.141,53.113,3.308,77.741
							c23.633,50.824,84.217,72.955,135.044,49.32c50.852-23.624,72.955-84.217,49.322-135.048
							c-23.633-50.823-84.217-72.955-135.044-49.321c-4.609,2.144-9.001,4.598-13.172,7.34
							C1484.574,2083.011,1470.803,2100.343,1463.229,2121.072z"/>
					</g>
					<path style="fill:#BDD0FB;" d="M1734.566,2428.219c9.276-6.098,18.299-12.698,27.031-19.794l0,0
						c2.749-2.232,5.462-4.512,8.138-6.832c13.193-11.447,25.454-23.926,36.595-37.242c0.152-0.181,0.304-0.363,0.456-0.543
						c0.428-0.517,0.857-1.033,1.281-1.557c0.833-1.008,1.654-2.027,2.472-3.044c2.151-2.679,2.227-6.353,0.438-9.081
						c-0.435-0.662-0.983-1.269-1.634-1.791c-3.33-2.673-8.193-2.124-10.867,1.197c-13.749,17.145-29.439,32.918-46.634,46.887
						c-85.386,69.425-196.831,85.861-294.243,53.491c-54.184-17.998-104.026-51.104-142.629-98.602
						c-6.772-8.327-13.073-16.936-18.885-25.786c-39.136-59.547-56.457-130.154-49.036-201.988
						c8.519-82.515,48.663-156.775,113.032-209.093c132.952-108.042,328.87-87.767,436.872,45.111
						c6.66,8.193,12.88,16.693,18.638,25.459c24.962,37.986,41.335,81.011,47.792,126.046c0.168,1.164,0.584,2.228,1.192,3.147
						c1.593,2.423,4.496,3.849,7.559,3.407c4.228-0.62,7.171-4.515,6.557-8.756c-6.78-47.28-23.966-92.455-50.172-132.334
						c-6.045-9.202-12.573-18.122-19.56-26.724c-113.392-139.511-319.171-160.714-458.631-47.363
						c-67.579,54.927-109.717,132.883-118.661,219.508c-7.792,75.413,10.394,149.536,51.477,212.051
						c6.106,9.289,12.72,18.325,19.822,27.067c54.932,67.58,132.887,109.723,219.51,118.669
						C1597.905,2487.521,1672.045,2469.319,1734.566,2428.219z"/>
				</g>
			</g>
			<g>
				<g style="opacity:0.3;">
					<path style="fill:#91B3FA;" d="M3041.341,1881.32c4.159-2.734,6.207-7.966,4.678-12.971c-2.848-9.343-6.019-18.728-9.426-27.89
						c-2.214-5.954-8.831-8.985-14.794-6.774c-5.974,2.194-8.987,8.839-6.774,14.794c3.246,8.731,6.269,17.675,8.989,26.591
						c1.848,6.073,8.28,9.495,14.361,7.649C3039.453,1882.386,3040.444,1881.909,3041.341,1881.32z"/>
					<path style="fill:#91B3FA;" d="M3006.843,1799.991c-5.639,2.928-12.582,0.741-15.517-4.9
						c-7.408-14.224-15.629-28.235-24.438-41.633c-1.857-2.826-3.755-5.64-5.686-8.445c-3.594-5.233-2.272-12.396,2.963-15.999
						c5.085-3.208,12.396-2.272,16.007,2.964c2.017,2.937,4.001,5.881,5.945,8.839c9.233,14.045,17.855,28.735,25.618,43.655
						c2.75,5.277,0.998,11.714-3.875,14.917C3007.536,1799.603,3007.195,1799.8,3006.843,1799.991z M2925.218,1698.978
						c-12.886-14.561-26.788-28.457-41.323-41.29c-4.764-4.21-5.215-11.47-1.008-16.239c4.191-4.732,11.476-5.218,16.24-1.009
						c15.234,13.449,29.812,28.015,43.321,43.286c4.211,4.76,3.768,12.032-0.99,16.249c-0.417,0.368-0.864,0.701-1.318,1
						C2935.434,1704.067,2929.056,1703.313,2925.218,1698.978z M2837.764,1621.817c-16.036-10.945-32.928-20.992-50.217-29.877
						c-5.646-2.903-7.876-9.842-4.972-15.489c2.916-5.668,9.833-7.889,15.491-4.979c18.13,9.312,35.85,19.863,52.666,31.332
						c5.247,3.583,6.606,10.744,3.023,15.991c-0.877,1.275-1.962,2.325-3.182,3.127
						C2846.795,1624.406,2841.733,1624.52,2837.764,1621.817z M2734.024,1568.5c-18.259-6.687-37.104-12.303-55.985-16.673
						c-6.197-1.44-10.051-7.619-8.613-13.807c1.434-6.174,7.609-10.044,13.801-8.615c19.812,4.591,39.559,10.474,58.712,17.487
						c5.967,2.183,9.031,8.8,6.849,14.766c-0.889,2.401-2.486,4.337-4.477,5.646
						C2741.368,1569.239,2737.584,1569.804,2734.024,1568.5z M2620.41,1542.126c-19.328-2.045-38.957-2.91-58.359-2.581
						c-6.347,0.112-11.587-4.954-11.697-11.309c-0.11-6.355,4.946-11.602,11.31-11.698c20.33-0.349,40.91,0.563,61.166,2.698
						c6.318,0.674,10.9,6.335,10.232,12.649c-0.377,3.569-2.347,6.585-5.127,8.412
						C2625.791,1541.708,2623.162,1542.414,2620.41,1542.126z M2503.838,1544.13c-19.225,2.715-38.456,6.658-57.17,11.726
						c-6.128,1.662-12.452-1.966-14.11-8.097c-1.657-6.131,1.953-12.432,8.098-14.118c19.62-5.314,39.801-9.45,59.967-12.299
						c6.291-0.882,12.113,3.493,12.999,9.781c0.64,4.554-1.475,8.863-5.075,11.23
						C2507.171,1543.258,2505.581,1543.887,2503.838,1544.13z M2391.344,1574.571c-17.915,7.327-35.608,15.878-52.587,25.426
						c-5.542,3.106-12.555,1.141-15.665-4.399c-3.115-5.535-1.107-12.463,4.392-15.674c17.806-9.997,36.356-18.965,55.145-26.65
						c5.883-2.403,12.603,0.415,15.009,6.295c2.116,5.171,0.185,10.999-4.322,13.961
						C2392.705,1573.931,2392.048,1574.283,2391.344,1574.571z M2228.574,1668.718c-4.367-4.618-4.162-11.894,0.457-16.262
						c12.781-12.087,26.447-23.678,40.571-34.429c2.138-1.646,4.291-3.25,6.454-4.847c4.983-3.894,12.323-2.669,16.085,2.469
						c3.764,5.122,2.658,12.317-2.462,16.086c-2.035,1.487-4.056,3.004-6.096,4.573c-13.522,10.287-26.557,21.344-38.747,32.867
						c-0.5,0.476-1.038,0.897-1.592,1.261C2238.667,1673.446,2232.461,1672.833,2228.574,1668.718z"/>
				</g>
				<g style="opacity:0.3;">
					<path style="fill:#91B3FA;" d="M2837.777,2432.418c-16.897,10.798-34.603,20.649-52.618,29.306
						c-5.727,2.743-12.601,0.336-15.354-5.397c-2.754-5.734-0.27-12.57,5.397-15.354c17.183-8.245,34.068-17.649,50.188-27.951
						c5.352-3.425,12.47-1.852,15.888,3.5c3.392,5.313,1.879,12.359-3.369,15.809
						C2837.867,2432.359,2837.82,2432.39,2837.777,2432.418z M2870.324,2395.397c-4.036-4.903-3.332-12.157,1.574-16.189
						c14.758-12.148,28.93-25.311,42.119-39.131c4.374-4.556,11.67-4.768,16.27-0.368c4.598,4.386,4.761,11.66,0.378,16.263
						c-13.824,14.479-28.675,28.277-44.145,41c-0.327,0.269-0.657,0.513-1.005,0.742
						C2880.671,2400.899,2874.102,2399.987,2870.324,2395.397z M2729.324,2484.431c-19.017,6.396-38.584,11.689-58.159,15.723
						c-6.224,1.281-12.315-2.729-13.593-8.948c-1.289-6.226,2.709-12.283,8.939-13.595c18.676-3.845,37.337-8.892,55.483-14.986
						c6.025-2.025,12.547,1.218,14.569,7.23c1.703,5.066-0.316,10.481-4.58,13.284
						C2731.177,2483.67,2730.289,2484.107,2729.324,2484.431z M2953.438,2312.253c-5.098-3.789-6.156-11-2.367-16.099
						c11.404-15.337,21.976-31.524,31.42-48.125c3.147-5.511,10.174-7.441,15.685-4.315c5.524,3.146,7.458,10.17,4.313,15.694
						c-9.899,17.413-20.989,34.397-32.953,50.478c-0.83,1.11-1.819,2.029-2.912,2.748
						C2962.7,2315.214,2957.423,2315.215,2953.438,2312.253z M2611.558,2508.683c-19.951,1.632-40.211,2.056-60.226,1.27
						c-6.349-0.25-11.295-5.605-11.045-11.954c0.25-6.35,5.593-11.302,11.954-11.046c19.09,0.762,38.411,0.351,57.439-1.212
						c6.33-0.517,11.887,4.194,12.405,10.536c0.358,4.337-1.752,8.318-5.156,10.556
						C2615.375,2507.853,2613.546,2508.518,2611.558,2508.683z M2491.393,2503.974c-19.8-3.201-39.584-7.635-58.795-13.172
						c-6.103-1.758-9.625-8.127-7.864-14.233c1.752-6.1,8.129-9.633,14.243-7.871c18.319,5.276,37.193,9.501,56.09,12.557
						c6.272,1.012,10.535,6.923,9.522,13.196c-0.538,3.313-2.438,6.068-5.044,7.781
						C2497.226,2503.757,2494.347,2504.451,2491.393,2503.974z M2375.803,2470.628c-18.473-7.851-36.622-16.908-53.938-26.906
						c-5.507-3.183-7.388-10.216-4.21-15.72c3.174-5.502,10.218-7.377,15.713-4.212c16.513,9.542,33.819,18.175,51.433,25.649
						c5.85,2.487,8.578,9.245,6.088,15.092c-0.917,2.175-2.427,3.907-4.257,5.111
						C2383.524,2471.684,2379.485,2472.188,2375.803,2470.628z"/>
					<path style="fill:#91B3FA;" d="M3024.976,2209.989c1.854-1.219,3.375-2.986,4.293-5.189
						c3.786-9.091,7.315-18.336,10.504-27.477c2.087-5.999-1.078-12.563-7.079-14.656c-5.994-2.07-12.552,1.084-14.655,7.08
						c-3.035,8.719-6.408,17.538-10.015,26.216c-2.442,5.867,0.34,12.604,6.204,15.042
						C3017.889,2212.523,3021.892,2212.016,3024.976,2209.989z"/>
				</g>
				<g>
					<path style="fill:#91B3FA;" d="M2944.073,2006.437c0.254-2.473-1.086-4.835-3.341-5.882l-64.306-29.88
						c-4.2-32.847-13.669-65.259-28.565-95.909l37.415-60.181c1.312-2.111,1.14-4.821-0.427-6.751l-53.647-66
						c-1.566-1.931-4.187-2.652-6.519-1.799l-66.557,24.329c-26.959-20.846-56.754-36.739-88.05-47.562l-16.108-69.053
						c-0.564-2.421-2.604-4.216-5.075-4.472l-84.604-8.736c-2.472-0.256-4.835,1.086-5.882,3.341l-29.878,64.305
						c-32.847,4.199-65.261,13.668-95.912,28.565l-60.18-37.416c-2.111-1.312-4.822-1.141-6.75,0.427l-66.003,53.647
						c-1.929,1.568-2.649,4.187-1.796,6.521l24.328,66.557c-20.846,26.959-36.739,56.754-47.56,88.05l-69.056,16.107
						c-2.42,0.565-4.217,2.603-4.471,5.075l-8.737,84.605c-0.255,2.471,1.087,4.833,3.339,5.88l64.308,29.88
						c4.198,32.847,13.666,65.26,28.564,95.91l-37.415,60.181c-1.313,2.11-1.142,4.821,0.427,6.75l53.647,66.003
						c1.568,1.928,4.186,2.65,6.521,1.797l66.556-24.329c26.959,20.846,56.755,36.739,88.051,47.562l16.107,69.054
						c0.564,2.42,2.602,4.216,5.075,4.472l84.604,8.737c2.473,0.255,4.835-1.087,5.883-3.34l29.878-64.307
						c32.848-4.199,65.26-13.668,95.911-28.565l60.18,37.416c2.111,1.311,4.821,1.14,6.751-0.427l66.001-53.647
						c1.928-1.568,2.651-4.187,1.796-6.521l-24.327-66.556c20.846-26.959,36.737-56.755,47.56-88.05l69.055-16.108
						c2.42-0.564,4.216-2.604,4.471-5.075L2944.073,2006.437z"/>
					<g>
						<path style="fill:#BDD0FB;" d="M2604.931,2089.292c-21.082,9.811-44.719,10.815-66.557,2.836
							c-21.832-7.969-39.256-23.971-49.056-45.055c-20.232-43.509-1.313-95.278,42.224-115.615
							c43.523-20.222,95.38-1.279,115.602,42.225c9.804,21.079,10.812,44.715,2.838,66.55c-6.484,17.749-18.273,32.584-33.782,42.78
							C2612.636,2085.356,2608.868,2087.458,2604.931,2089.292z M2510.179,2037.367c7.211,15.511,20.026,27.282,36.094,33.151
							c16.056,5.863,33.446,5.121,48.951-2.086l0,0c15.497-7.23,27.274-20.028,33.143-36.095c5.87-16.054,5.12-33.446-2.084-48.946
							c-14.883-32.008-53.026-45.941-85.038-31.068c-2.887,1.347-5.625,2.877-8.212,4.578
							C2506.955,1974.044,2496.642,2008.254,2510.179,2037.367z"/>
					</g>
					<path style="fill:#BDD0FB;" d="M2685.379,2191.255c6.084-3.999,12.01-8.34,17.782-13.021
						c11.452-9.303,21.97-19.781,31.281-31.173c0.415-0.515,0.829-1.03,1.244-1.545c3.202-3.987,3.313-9.452,0.651-13.511
						c-0.648-0.986-1.463-1.888-2.43-2.664c-4.955-3.977-12.184-3.152-16.168,1.781c-8.593,10.719-18.382,20.555-29.086,29.247
						l-0.005,0.003c-0.586,0.479-1.183,0.951-1.77,1.418c-25.522,20.341-55.146,33.55-86.456,39.073
						c-16.995,2.996-34.499,3.719-52.122,2.06c-0.144-0.013-0.286-0.027-0.43-0.04c-0.441-0.047-0.876-0.084-1.312-0.133
						c-51.472-5.319-97.797-30.358-130.434-70.514c-4.228-5.194-8.153-10.562-11.782-16.082
						c-24.412-37.146-35.215-81.193-30.592-126.01c5.319-51.473,30.365-97.789,70.516-130.423
						c40.14-32.6,90.618-47.684,142.089-42.378c51.472,5.318,97.797,30.358,130.434,70.514c4.157,5.106,8.034,10.411,11.626,15.875
						c15.574,23.701,25.786,50.536,29.812,78.627c0.25,1.732,0.867,3.316,1.773,4.683c2.37,3.605,6.69,5.728,11.247,5.072
						c6.287-0.919,10.66-6.725,9.756-13.029c-4.508-31.432-15.933-61.463-33.347-87.974c-4.024-6.121-8.359-12.052-13.004-17.767
						c-36.521-44.93-88.345-72.944-145.938-78.891c-57.583-5.941-114.038,10.84-158.961,47.405
						c-44.928,36.513-72.945,88.332-78.885,145.927c-5.183,50.134,6.908,99.412,34.221,140.971
						c4.055,6.168,8.451,12.18,13.172,17.991C2468.964,2233.723,2593.659,2251.55,2685.379,2191.255z"/>
				</g>
			</g>
		</g>
		<g>
			
				<linearGradient id="SVGID_00000045583930801714761830000001692978520179094693_" gradientUnits="userSpaceOnUse" x1="4981.8379" y1="-1862.1855" x2="2849.8525" y2="898.74" gradientTransform="matrix(0.9889 -0.1483 0.1483 0.9889 -758.7655 176.3057)">
				<stop  offset="0" style="stop-color:#E1473D"/>
				<stop  offset="1" style="stop-color:#E9605A"/>
			</linearGradient>
			<path style="fill:url(#SVGID_00000045583930801714761830000001692978520179094693_);" d="M3234.245,1199.103
				c14.18-18.918,16.619-64.175-3.437-76.466L2627.491,774.68c-1.232-0.745-2.655-1.036-4.043-0.828l-1.772,11.834L579.02,1114.008
				c-14.881,2.232,25.78,71.017,28.161,86.889l145.834,702.031l-97.412,116.804l6.583,43.887
				c2.381,15.872,16.374,26.93,31.255,24.698l2062.574-309.372c12.879-1.932,24.629-8.616,33.208-18.892
				C2789.222,1760.053,3136.111,1330.026,3234.245,1199.103z"/>
			
				<linearGradient id="SVGID_00000021087024701346806400000002037435519571799440_" gradientUnits="userSpaceOnUse" x1="2833.7837" y1="575.3708" x2="-315.4977" y2="2767.3835">
				<stop  offset="0" style="stop-color:#FF928E"/>
				<stop  offset="1" style="stop-color:#FE7062"/>
			</linearGradient>
			<path style="fill:url(#SVGID_00000021087024701346806400000002037435519571799440_);" d="M3229.51,1167.533
				c14.334-17.893,9.266-44.336-10.649-55.694l-591.383-337.247c-1.223-0.688-2.642-0.948-4.03-0.74l-2080.365,312.04
				c-14.881,2.232-25.135,16.105-22.903,30.986l132.884,885.932c2.232,14.881,16.105,25.135,30.986,22.903l2062.574-309.372
				c12.879-1.932,24.675-8.316,33.335-18.042C2779.96,1698.299,3130.311,1291.359,3229.51,1167.533z"/>
		</g>
		<g>
			
				<linearGradient id="SVGID_00000155853036716226944510000009376965804609267105_" gradientUnits="userSpaceOnUse" x1="2853.8113" y1="1670.6128" x2="2729.6274" y2="2051.2627">
				<stop  offset="0" style="stop-color:#FEBBBA"/>
				<stop  offset="1" style="stop-color:#FF928E"/>
			</linearGradient>
			<path style="fill:url(#SVGID_00000155853036716226944510000009376965804609267105_);" d="M2730.269,1738.746
				c-0.488,0.625-156.381,200.896,22.079,404.58l67.198-6.261c0,0-129.355-207.702-71.74-373.269
				c0.518-1.489,35.287,2.578,37.89,2.766c15.952,1.154,36.047,2.136,48.61-9.84c7.053-6.725,9.932-16.609,12.473-26.017
				c4.844-17.942,9.52-36.698,5.861-54.919c-9.255,9.076-17.496,19.169-24.574,30.026c-5.878,9.015-8.593,19.575-17.772,25.788
				c-15.261,10.329-36.822,6.55-53.669,6.776C2753.504,1738.419,2732.26,1736.203,2730.269,1738.746z"/>
			
				<linearGradient id="SVGID_00000011721257316747130120000001876696764585860532_" gradientUnits="userSpaceOnUse" x1="2816.0718" y1="2939.8086" x2="3053.3477" y2="2939.8086">
				<stop  offset="0" style="stop-color:#FEBBBA"/>
				<stop  offset="1" style="stop-color:#FF928E"/>
			</linearGradient>
			<path style="fill:url(#SVGID_00000011721257316747130120000001876696764585860532_);" d="M2816.072,2720.768
				c0,0,126.929,276.644,193.523,391.229c0,0,13.227,72.1,0,94.771l-11.272,5.01l52.607-1.566c0,0,4.673-96.981,1.024-102.398
				c-3.65-5.417-10.949-5.062-10.949-5.062s-22.558-178.713-87.885-216.854l-63.311-218.061L2816.072,2720.768z"/>
			
				<linearGradient id="SVGID_00000037661959621521317090000015113072902822067367_" gradientUnits="userSpaceOnUse" x1="3142.2139" y1="2409.1868" x2="3024.7075" y2="3172.9749">
				<stop  offset="0" style="stop-color:#09005D"/>
				<stop  offset="1" style="stop-color:#1A0F91"/>
			</linearGradient>
			<path style="fill:url(#SVGID_00000037661959621521317090000015113072902822067367_);" d="M2975.856,3225.361
				c-0.078,1.269,41.079,0.689,63.436,0.281c8.255-0.151,15.293-5.953,17.052-14.02l16.884-88.703
				c1.604-8.43-3.748-16.618-12.114-18.53l-9.424-2.154c0,0-13.444,18.442-9.212,35.806c4.232,17.364,7.998,62.341-2.697,67.582
				c-10.695,5.241-41.459,6.156-41.459,6.156S2976.559,3213.937,2975.856,3225.361z"/>
			
				<linearGradient id="SVGID_00000010993629448409789840000016879913355926814861_" gradientUnits="userSpaceOnUse" x1="2893.5828" y1="2370.938" x2="2776.0762" y2="3134.7275">
				<stop  offset="0" style="stop-color:#09005D"/>
				<stop  offset="1" style="stop-color:#1A0F91"/>
			</linearGradient>
			<path style="fill:url(#SVGID_00000010993629448409789840000016879913355926814861_);" d="M2695.765,3226.971
				c-4.163,2.372-2.446,8.727,2.345,8.679c37.414-0.376,121.252-1.56,128.702-4.658c9.618-4-3.505-38.561-17.316-50.259
				l-76.259,24.889L2695.765,3226.971z"/>
			
				<linearGradient id="SVGID_00000145060843058863678480000009413148145229188770_" gradientUnits="userSpaceOnUse" x1="2672.094" y1="2957.4517" x2="2809.4956" y2="2957.4517">
				<stop  offset="0" style="stop-color:#FEBBBA"/>
				<stop  offset="1" style="stop-color:#FF928E"/>
			</linearGradient>
			<path style="fill:url(#SVGID_00000145060843058863678480000009413148145229188770_);" d="M2672.094,2703.124
				c0,0,82.024,396.805,105.228,474.209l-54.891,34.446c0,0,27.507-4.678,47.905-6.156c20.398-1.478,39.16-24.889,39.16-24.889
				l-6.576-10.489c0,0-20.57-394.644-15.562-439.457L2672.094,2703.124z"/>
			
				<linearGradient id="SVGID_00000176034620424143739440000013951731519513833893_" gradientUnits="userSpaceOnUse" x1="2814.575" y1="2354.449" x2="2347.2434" y2="1671.0381">
				<stop  offset="0" style="stop-color:#FEBBBA"/>
				<stop  offset="1" style="stop-color:#FF928E"/>
			</linearGradient>
			<path style="fill:url(#SVGID_00000176034620424143739440000013951731519513833893_);" d="M2521.756,1826.979
				c0,0-22.336,186.949,165.591,292.427l-34.222,122.655c0,0-170.143-102.911-163.851-383.592c0.181-8.055-2.725-15.877-7.985-21.98
				l-36.161-41.951c-13.777-15.983-18.926-37.666-13.805-58.136l4.76-19.026c1.594-6.37,8.848-9.435,14.526-6.137l3.782,2.197
				c12.038,6.992,21.574,17.591,27.259,30.299l17.756,39.692c6.633,14.826,21.925,23.828,38.107,22.431l10.979-0.948
				L2521.756,1826.979z"/>
			
				<linearGradient id="SVGID_00000064341325104305001640000005020038162211993015_" gradientUnits="userSpaceOnUse" x1="3398.4673" y1="2294.7012" x2="2751.876" y2="2234.3977">
				<stop  offset="0" style="stop-color:#FF928E"/>
				<stop  offset="1" style="stop-color:#FE7062"/>
			</linearGradient>
			<path style="fill:url(#SVGID_00000064341325104305001640000005020038162211993015_);" d="M2638.553,2074
				c31.44,8.719,137.954,36.738,204.449,35.594l-40.827,230.39l3.25,37.577l-133.112-0.596c0,0-37.472-87.025-67.036-130.412
				c-8.539-12.531-2.184-27.477,2.656-41.848l-6.649-4.427c-6.766-4.505-9.7-12.967-7.175-20.693l32.415-99.176
				C2628.207,2075.41,2633.47,2072.59,2638.553,2074z"/>
			
				<linearGradient id="SVGID_00000067217235449731308770000016166441766523284371_" gradientUnits="userSpaceOnUse" x1="2550.7813" y1="2336.7285" x2="2991.4287" y2="2833.6807">
				<stop  offset="0" style="stop-color:#4F52FF"/>
				<stop  offset="1" style="stop-color:#4042E2"/>
			</linearGradient>
			<path style="fill:url(#SVGID_00000067217235449731308770000016166441766523284371_);" d="M2661.647,2357.301l2.619,22.765
				c0,0-37.617,112.655,18.809,375.774c0,0,122.206,34.62,222.646-48.223c0,0-28.333-248.344-36.072-259.912
				c-38.546-57.619-64.224-70.144-64.224-70.144l-1.158-24.871C2804.267,2352.689,2696.84,2372.112,2661.647,2357.301z"/>
			
				<linearGradient id="SVGID_00000106133740759962196080000001129042259704832134_" gradientUnits="userSpaceOnUse" x1="2713.7478" y1="2058.6362" x2="2797.8301" y2="2058.6362">
				<stop  offset="0" style="stop-color:#FEBBBA"/>
				<stop  offset="1" style="stop-color:#FF928E"/>
			</linearGradient>
			<path style="fill:url(#SVGID_00000106133740759962196080000001129042259704832134_);" d="M2713.754,2092.568
				c-0.467-0.616,27.79-85.311,27.79-85.311l40.475,3.672l15.812,96.082C2797.83,2107.01,2734.397,2119.814,2713.754,2092.568z"/>
			
				<linearGradient id="SVGID_00000140725378309080878970000005523588230920640679_" gradientUnits="userSpaceOnUse" x1="2847.3809" y1="1949.9773" x2="3459.3914" y2="1991.594">
				<stop  offset="0" style="stop-color:#FEBBBA"/>
				<stop  offset="1" style="stop-color:#FF928E"/>
			</linearGradient>
			<path style="fill:url(#SVGID_00000140725378309080878970000005523588230920640679_);" d="M2772.328,1873.692
				c-2.699,1.68-86.49,36.309-68.487,123.3c1.064,5.14,4.494,9.498,9.288,11.636c12.296,5.485,38.767,14.876,70.429,11.658
				c43.896-4.461,72.659-81.059,71.436-103.349C2853.77,1894.647,2799.077,1857.036,2772.328,1873.692z"/>
			
				<linearGradient id="SVGID_00000053524787246687350540000017849640840025907085_" gradientUnits="userSpaceOnUse" x1="2947.9739" y1="1913.0863" x2="2732.5469" y2="2343.9397">
				<stop  offset="0" style="stop-color:#09005D"/>
				<stop  offset="1" style="stop-color:#1A0F91"/>
			</linearGradient>
			<path style="fill:url(#SVGID_00000053524787246687350540000017849640840025907085_);" d="M2797.83,1839.872
				c-2.203,0.289-48.422,16.387-25.502,49.878s31.519,53.207,20.678,67.914c-9.877,13.399-31.756,5.762-29.847,33.638
				c0.382,5.58-2.031,10.997-6.663,14.132c-20.618,13.956-70.919,56.913-21.082,118.175c4.051,4.979,4.885,11.853,1.76,17.46
				c-14.597,26.181-45.257,102.878,65.746,145.423c109.688,42.041,149.292-29.66,160.356-58.319
				c2.393-6.199,8.496-9.993,15.134-9.68c12.052,0.569,29.132-1.436,28.347-17.543c-0.477-9.783-6.581-18.551-13.795-25.58
				c-7.14-6.957-5.729-19.138,2.938-24.063c6.547-3.72,12.342-9.528,14.788-18.59c6.647-24.632-6.624-98.284-77.221-110.766
				c-5.889-1.041-12.055-6.562-12.913-12.481c-0.013-0.088-0.026-0.176-0.041-0.264c-0.947-5.724,0.99-11.576,5.668-15.008
				c11.273-8.269,25.729-24.918,13.987-51.616c-10.414-23.679-30.387-31.667-45.223-34.212c-8.71-1.495-14.438-9.733-12.601-18.378
				C2887.347,1866.436,2882.986,1828.707,2797.83,1839.872z"/>
		</g>
		<g>
			
				<linearGradient id="SVGID_00000070095759228241178920000003271527015319570333_" gradientUnits="userSpaceOnUse" x1="486.2225" y1="3191.7776" x2="585.0231" y2="3191.7776">
				<stop  offset="0" style="stop-color:#09005D"/>
				<stop  offset="1" style="stop-color:#1A0F91"/>
			</linearGradient>
			<path style="fill:url(#SVGID_00000070095759228241178920000003271527015319570333_);" d="M499.976,3156.962
				c0,0-10.979,17.306-13.741,65.758c-0.257,4.514,3.319,8.36,7.841,8.36h85.865c3.455,0,5.921-3.387,4.814-6.66
				c-5.032-14.892-20.245-51.199-54.191-71.947L499.976,3156.962z"/>
			
				<linearGradient id="SVGID_00000098192164971258586460000005307989757949663652_" gradientUnits="userSpaceOnUse" x1="496.2447" y1="3145.866" x2="536.3151" y2="3145.866">
				<stop  offset="0" style="stop-color:#A22B25"/>
				<stop  offset="1" style="stop-color:#C0423C"/>
			</linearGradient>
			<path style="fill:url(#SVGID_00000098192164971258586460000005307989757949663652_);" d="M496.245,3124.132l4.857,40.722
				c0.419,3.513,3.173,6.325,6.687,6.731c4.696,0.541,11.523,0.922,18.156-0.172c6.03-0.995,10.37-6.366,10.37-12.477v-39.318
				L496.245,3124.132z"/>
			<path style="fill:#666694;" d="M583.971,2623.889c-1.737,0-3.322-1.166-3.779-2.924l-14.913-57.21l-31.767-20.377
				c-1.817-1.166-2.346-3.585-1.18-5.402c1.166-1.821,3.578-2.35,5.402-1.18L570.789,2558c0.827,0.53,1.426,1.353,1.672,2.305
				l15.297,58.688c0.547,2.09-0.706,4.226-2.796,4.769C584.629,2623.848,584.3,2623.889,583.971,2623.889z"/>
			
				<linearGradient id="SVGID_00000060709575863550002370000002225677208754944911_" gradientUnits="userSpaceOnUse" x1="696.3334" y1="3190.198" x2="851.3551" y2="3190.198">
				<stop  offset="0" style="stop-color:#09005D"/>
				<stop  offset="1" style="stop-color:#1A0F91"/>
			</linearGradient>
			<path style="fill:url(#SVGID_00000060709575863550002370000002225677208754944911_);" d="M712.422,3152.474
				c0,0-16.434,25.545-16.083,60.609c0.083,8.259,6.997,14.838,15.257,14.838h133.358c6.244,0,8.779-8.024,3.669-11.613
				c-25.235-17.721-74.834-50.824-110.708-63.835H712.422z"/>
			
				<linearGradient id="SVGID_00000152233039404192403040000012388128938180218245_" gradientUnits="userSpaceOnUse" x1="698.6884" y1="3128.0732" x2="738.5377" y2="3128.0732">
				<stop  offset="0" style="stop-color:#A22B25"/>
				<stop  offset="1" style="stop-color:#C0423C"/>
			</linearGradient>
			<path style="fill:url(#SVGID_00000152233039404192403040000012388128938180218245_);" d="M698.688,3108.495l10.358,50.293
				c1.159,5.625,6.661,9.407,12.267,8.157c3.408-0.761,7.428-2.218,11.724-4.904c4.082-2.552,6.151-7.408,5.317-12.151
				l-10.715-60.93L698.688,3108.495z"/>
			
				<linearGradient id="SVGID_00000156563965737314255860000000205926911693725830_" gradientUnits="userSpaceOnUse" x1="471.3478" y1="2766.6558" x2="743.0142" y2="2766.6558">
				<stop  offset="0" style="stop-color:#09005D"/>
				<stop  offset="1" style="stop-color:#1A0F91"/>
			</linearGradient>
			<path style="fill:url(#SVGID_00000156563965737314255860000000205926911693725830_);" d="M526.104,2393.359
				c0,0-46.85,47.64-53.628,85.845c-6.779,38.205,19.205,659.155,19.205,659.155s36.017,5.992,54.583-5.258
				c0,0,22.021-402.992,38.759-496.114c0,0,87.781,417.447,112.103,492.874c0,0,34.699,4.221,45.888-2.382
				c0,0-20.894-551.186-49.787-647.39L526.104,2393.359z"/>
			
				<linearGradient id="SVGID_00000149381447733921236380000009120119552601027475_" gradientUnits="userSpaceOnUse" x1="1388.3047" y1="2610.8953" x2="1303.5144" y2="3413.9133" gradientTransform="matrix(0.9743 -0.2255 0.2255 0.9743 -1199.933 -226.5964)">
				<stop  offset="0" style="stop-color:#4F52FF"/>
				<stop  offset="1" style="stop-color:#4042E2"/>
			</linearGradient>
			<path style="fill:url(#SVGID_00000149381447733921236380000009120119552601027475_);" d="M857.036,2029.306
				c-64.971-44.001-169.884-46.395-229.64-43.523c-26.179,1.258-47.711,20.971-51.075,46.963
				c-9.753,75.349-38.175,272.086-44.602,306.264c-3.436,18.261-25.241,61.207-13.509,77.396c4.244,5.856,11.093,9.15,17.706,12.077
				c19.145,8.472,38.761,15.83,58.364,23.183c14.663,5.5,29.325,10.999,43.988,16.499c19.513,7.319,52.883,21.199,70.569,4.685
				c17.65-16.48,17.815-45.017,24.349-66.644c5.896-19.518,12.572-38.837,18.851-58.235c16.078-49.668,32.156-99.335,48.235-149.003
				c0.681-2.104,11.917-31.771,10.586-32.7c104.407,72.898,179.119,64.484,230.349,31.384
				c-16.12-26.872-29.005-54.549-38.702-83.023C916.655,2119.593,857.036,2029.306,857.036,2029.306z"/>
			
				<linearGradient id="SVGID_00000139285962768521273080000017300140338326656391_" gradientUnits="userSpaceOnUse" x1="925.8243" y1="2249.3838" x2="662.2744" y2="2499.5332">
				<stop  offset="0" style="stop-color:#A22B25"/>
				<stop  offset="1" style="stop-color:#C0423C"/>
			</linearGradient>
			<path style="fill:url(#SVGID_00000139285962768521273080000017300140338326656391_);" d="M1135.416,2067.582l-19.501-16.421
				c-40.578,44.299-79.087,61.485-113.409,63.469c9.697,28.473,22.582,56.151,38.702,83.023
				C1108.698,2154.046,1135.416,2067.582,1135.416,2067.582z"/>
			
				<linearGradient id="SVGID_00000110462018337253578290000001913994887262987453_" gradientUnits="userSpaceOnUse" x1="1103.875" y1="2098.2434" x2="840.3253" y2="2348.3926">
				<stop  offset="0" style="stop-color:#A22B25"/>
				<stop  offset="1" style="stop-color:#C0423C"/>
			</linearGradient>
			<path style="fill:url(#SVGID_00000110462018337253578290000001913994887262987453_);" d="M1124.992,2070.373l84.714-16.156
				l67.309-61.063c-12.705-4.387-72.162,24.35-72.162,24.35s-67.889,5.259-85.648,9.344c-14.75,3.393-7.736,24.109-4.936,31.031
				c0.571,1.412,0.967,2.25,0.967,2.25L1124.992,2070.373z"/>
			
				<linearGradient id="SVGID_00000026164542328197408520000007740451075788559525_" gradientUnits="userSpaceOnUse" x1="1460.6898" y1="2397.5576" x2="1150.7814" y2="2966.9836" gradientTransform="matrix(0.9743 -0.2255 0.2255 0.9743 -1199.933 -226.5964)">
				<stop  offset="0" style="stop-color:#A22B25"/>
				<stop  offset="1" style="stop-color:#C0423C"/>
			</linearGradient>
			<path style="fill:url(#SVGID_00000026164542328197408520000007740451075788559525_);" d="M682.463,1864.617l-19.282,118.347
				c0,0,59.051,23.451,99.224,10.622l-0.386-102.314L682.463,1864.617z"/>
			<g>
				
					<linearGradient id="SVGID_00000153687724206883672580000016501070022978417087_" gradientUnits="userSpaceOnUse" x1="601.7415" y1="5114.6885" x2="464.7746" y2="5295.8843" gradientTransform="matrix(0.6659 -0.7461 0.7461 0.6659 -3493.8445 -1162.722)">
					<stop  offset="0" style="stop-color:#A22B25"/>
					<stop  offset="1" style="stop-color:#C0423C"/>
				</linearGradient>
				<path style="fill:url(#SVGID_00000153687724206883672580000016501070022978417087_);" d="M740.237,1773.608
					c1.348,1.203,58.323,106.128,58.323,106.128l-60.602,31.259l-68.776-91.425C669.182,1819.57,717.684,1753.476,740.237,1773.608z
					"/>
				
					<linearGradient id="SVGID_00000116209037788995323070000012722879044787187590_" gradientUnits="userSpaceOnUse" x1="497.1407" y1="5158.397" x2="660.7521" y2="5158.397" gradientTransform="matrix(0.6659 -0.7461 0.7461 0.6659 -3493.8445 -1162.722)">
					<stop  offset="0" style="stop-color:#09005D"/>
					<stop  offset="1" style="stop-color:#1A0F91"/>
				</linearGradient>
				<path style="fill:url(#SVGID_00000116209037788995323070000012722879044787187590_);" d="M697.01,1829.439l32.436,50.963
					c0.416,0.654,0.905,1.234,1.482,1.751c3.533,3.162,16.486,13.151,25.898-0.725c8.54-12.591,16.521-23.954,25.443-27.747
					c4.005-1.702,8.641-0.09,10.717,3.735c5.174,9.535,16.436,31.236,23.344,51.582c1.402,4.129-0.633,8.624-4.622,10.383
					c-12.023,5.298-37.693,15.764-60.316,19.346c-3.066,0.485-6.139-0.71-8.033-3.168c-9.237-11.985-37.445-48.307-46.871-57.213
					c-8.847-8.359-24.868-4.359-31.476-2.201c-2.166,0.708-4.506,0.499-6.514-0.578c-7.099-3.808-21.387-14.416-9.246-33.882
					c2.541-4.074,1.216-9.391-2.933-11.807c-8.261-4.81-18.136-14.445-10.079-31.093c8.189-16.922,23.882-18.162,33.959-16.922
					c4.075,0.501,7.806-2.036,9.053-5.947c0.71-2.227,2.395-4.178,5.982-4.689c4.834-0.69,7.904-5.567,6.718-10.303
					c-2.279-9.099-1.679-21.401,13.031-30.003c26.101-15.263,49.93,7.851,56.36,27.725c6.429,19.875-22.81,34.814-41.376,37.67
					c-14.116,2.171-21.235,18.308-23.837,25.918C695.306,1824.645,695.642,1827.289,697.01,1829.439z"/>
				
					<linearGradient id="SVGID_00000137829788882336075090000000234311683220278709_" gradientUnits="userSpaceOnUse" x1="709.852" y1="1692.1255" x2="674.1162" y2="1984.7109">
					<stop  offset="0" style="stop-color:#A22B25"/>
					<stop  offset="1" style="stop-color:#C0423C"/>
				</linearGradient>
				<path style="fill:url(#SVGID_00000137829788882336075090000000234311683220278709_);" d="M708.484,1896.784
					c0,0-12.69-34.15-27.732-32.485c-15.042,1.664-26.51,16.997-7.38,33.386C697.169,1918.069,708.484,1896.784,708.484,1896.784z"
					/>
			</g>
		</g>
		<g>
			<path style="fill:#FFFFFF;" d="M1035.476,1584.593c-13.98,7.273-41.822,19.885-76.116,24.548
				c-38.439,5.225-71.431-0.268-99.528-20.635c-24.727-18.129-42.905-50.204-48.287-89.775
				c-9.92-75.799,34.559-138.268,119.727-149.847c29.399-3.998,53.257-0.716,64.904,3.072l-4.276,27.835
				c-14.386-4.184-32.013-6.782-57.637-3.298c-61.809,8.402-96.907,52.324-88.251,116.017
				c8.762,64.446,52.753,97.231,111.921,89.186c21.482-2.918,35.769-7.931,42.797-12.727l-10.299-75.75l-51.63,7.018l-3.586-26.383
				l83.664-11.372L1035.476,1584.593z"/>
			<path style="fill:#FFFFFF;" d="M1085.379,1330.618l20.442,150.374c7.738,56.908,36.267,77.591,70.181,72.982
				c37.69-5.124,58.426-33.273,50.796-89.428l-20.442-150.373l33.162-4.508l20.134,148.113
				c10.607,78.01-26.121,115.631-81.138,123.11c-52.013,7.07-95.255-17.376-105.964-96.139l-20.337-149.621L1085.379,1330.618z"/>
			<path style="fill:#FFFFFF;" d="M1329.196,1297.472l34.529,254.011l-32.789,4.456l-34.529-254.011L1329.196,1297.472z"/>
			<path style="fill:#FFFFFF;" d="M1386.934,1293.082c19.565-5.732,43-11.219,69.006-14.755
				c47.106-6.403,82.132-0.036,107.187,17.67c25.427,17.654,42.617,45.26,48.199,86.337c5.637,41.456-2.568,77.114-23.131,103.709
				c-20.517,26.969-57.968,45.11-107.338,51.82c-23.366,3.177-43.121,4.711-59.957,5.081L1386.934,1293.082z M1450.255,1513.237
				c8.5,0.38,20.612-0.883,33.424-2.624c70.099-9.531,102.832-53.898,93.508-122.486c-7.77-59.977-46.86-93.433-116.207-84.004
				c-16.957,2.303-29.563,5.559-37.978,8.621L1450.255,1513.237z"/>
			<path style="fill:#FFFFFF;" d="M1787.317,1372.61l-98.74,13.424l12.452,91.581l110.043-14.962l3.74,27.508l-142.836,19.417
				l-34.529-254.011l137.182-18.649l3.74,27.515l-104.39,14.193l10.911,80.271l98.736-13.424L1787.317,1372.61z"/>
			<path style="fill:#FFFFFF;" d="M1822.854,1230.367l32.789-4.459l30.787,226.503l108.542-14.752l3.736,27.508l-141.324,19.211
				L1822.854,1230.367z"/>
			<path style="fill:#FFFFFF;" d="M2033.506,1201.73l34.529,254.011l-32.786,4.456l-34.529-254.011L2033.506,1201.73z"/>
			<path style="fill:#FFFFFF;" d="M2125.316,1447.954l-34.53-254.011l35.802-4.865l98.874,117.447
				c22.892,27.211,41.226,51.971,56.823,76.332l0.7-0.478c-7.623-33.505-12.58-64.308-17.958-103.876l-14.448-106.281l30.904-4.201
				l34.529,254.011l-33.165,4.508l-98.17-117.922c-21.554-25.859-42.46-52.573-59.015-78.344l-1.08,0.533
				c6.242,31.775,11.143,62.198,16.882,104.406l14.755,108.538L2125.316,1447.954z"/>
			<path style="fill:#FFFFFF;" d="M2488.617,1277.276l-98.74,13.424l12.446,91.581l110.047-14.958l3.743,27.508l-142.835,19.414
				l-34.53-254.011l137.182-18.649l3.736,27.515l-104.393,14.193l10.914,80.271l98.74-13.424L2488.617,1277.276z"/>
		</g>
	</g>
</g>
</svg>
